<svg width="32" height="32" viewBox="0 0 32 32" fill="none" xmlns="http://www.w3.org/2000/svg">
<g clip-path="url(#clip0_14_1107)">
<path d="M29.8397 0H2.04032C0.913482 0 0 0.913482 0 2.04032V29.8397C0 30.9665 0.913482 31.88 2.04032 31.88H29.8397C30.9665 31.88 31.88 30.9665 31.88 29.8397V2.04032C31.88 0.913482 30.9665 0 29.8397 0Z" fill="black"/>
<mask id="mask0_14_1107" style="mask-type:alpha" maskUnits="userSpaceOnUse" x="0" y="0" width="32" height="32">
<path d="M29.8397 0H2.04032C0.913482 0 0 0.913482 0 2.04032V29.8397C0 30.9665 0.913482 31.88 2.04032 31.88H29.8397C30.9665 31.88 31.88 30.9665 31.88 29.8397V2.04032C31.88 0.913482 30.9665 0 29.8397 0Z" fill="black"/>
</mask>
<g mask="url(#mask0_14_1107)">
<path d="M21.8951 3.94727V23.6549H18.2962L9.72218 11.251H9.57783V23.6549H5.41113V3.94727H9.06781L17.5744 16.3415H17.7477V3.94727H21.8951ZM31.9197 29.5056C30.5918 29.5056 29.4531 29.3228 28.5036 28.9571C27.5606 28.5978 26.81 28.1071 26.2518 27.4848C25.6937 26.8625 25.3313 26.1633 25.1645 25.387L28.9559 24.877C29.0714 25.1721 29.2542 25.448 29.5044 25.7046C29.7546 25.9612 30.085 26.1665 30.4956 26.3205C30.9126 26.4808 31.4193 26.561 32.016 26.561C32.9077 26.561 33.6423 26.3429 34.2196 25.9067C34.8034 25.4768 35.0953 24.7551 35.0953 23.7415V21.0375H34.922C34.7424 21.448 34.473 21.8361 34.1138 22.2019C33.7545 22.5675 33.2926 22.8658 32.7281 23.0967C32.1635 23.3277 31.4899 23.4432 30.7073 23.4432C29.5974 23.4432 28.587 23.1866 27.676 22.6734C26.7715 22.1537 26.0498 21.3615 25.5109 20.2965C24.9784 19.2252 24.7122 17.8715 24.7122 16.2357C24.7122 14.5613 24.9849 13.1627 25.5301 12.0401C26.0755 10.9174 26.8004 10.077 27.7049 9.51893C28.6159 8.96077 29.6135 8.68169 30.6976 8.68169C31.5252 8.68169 32.218 8.82286 32.7761 9.10512C33.3343 9.38095 33.7834 9.72742 34.1234 10.1444C34.4698 10.555 34.7361 10.9591 34.922 11.3569H35.076V8.87419H39.1465V23.7993C39.1465 25.0566 38.8386 26.1087 38.2227 26.9556C37.6068 27.8024 36.7536 28.4375 35.663 28.8609C34.5788 29.2907 33.3311 29.5056 31.9197 29.5056ZM32.0064 20.3639C32.6671 20.3639 33.2253 20.2003 33.6807 19.8731C34.1426 19.5395 34.4954 19.0648 34.7392 18.4489C34.9894 17.8267 35.1145 17.0825 35.1145 16.2164C35.1145 15.3504 34.9926 14.5998 34.7489 13.9647C34.5051 13.3232 34.1523 12.826 33.6903 12.4731C33.2285 12.1203 32.6671 11.9438 32.0064 11.9438C31.3327 11.9438 30.765 12.1267 30.3031 12.4924C29.8412 12.8516 29.4915 13.352 29.2542 13.9935C29.0168 14.6351 28.8981 15.376 28.8981 16.2164C28.8981 17.0696 29.0168 17.8074 29.2542 18.4297C29.498 19.0456 29.8476 19.5235 30.3031 19.8635C30.765 20.1971 31.3327 20.3639 32.0064 20.3639Z" fill="white"/>
</g>
</g>
<defs>
<clipPath id="clip0_14_1107">
<rect width="31.88" height="31.88" fill="white"/>
</clipPath>
</defs>
</svg>
